<svg width="44" height="44" viewBox="0 0 44 44" fill="none" xmlns="http://www.w3.org/2000/svg">
<path fill-rule="evenodd" clip-rule="evenodd" d="M22.0003 5.50008C12.3814 5.50008 5.50033 12.3811 5.50033 22.0001C5.50033 31.619 12.3814 38.5001 22.0003 38.5001C31.6193 38.5001 38.5003 31.619 38.5003 22.0001C38.5003 12.3811 31.6193 5.50008 22.0003 5.50008ZM3.66699 22.0001C3.66699 11.3686 11.3688 3.66675 22.0003 3.66675C32.6318 3.66675 40.3337 11.3686 40.3337 22.0001C40.3337 32.6316 32.6318 40.3334 22.0003 40.3334C11.3688 40.3334 3.66699 32.6316 3.66699 22.0001Z" fill="#272727"/>
<path d="M21.9997 18.3333C19.9746 18.3333 18.333 19.9749 18.333 21.9999C18.333 24.025 19.9746 25.6666 21.9997 25.6666C24.0247 25.6666 25.6663 24.025 25.6663 21.9999C25.6663 19.9749 24.0247 18.3333 21.9997 18.3333Z" fill="#272727"/>
<path d="M16.0546 7.88705C15.7793 7.7891 15.5435 7.84317 15.4295 7.87998C15.3759 7.89727 15.333 7.916 15.3115 7.92566C15.2912 7.93476 15.2712 7.94439 15.2615 7.94903L15.2593 7.95007C12.6297 9.21165 10.4062 11.1863 8.84257 13.6501C7.27896 16.114 6.439 18.9667 6.41712 21.8832L6.4171 21.8856C6.41702 21.8963 6.41684 21.9185 6.41724 21.9408C6.41767 21.9644 6.41897 22.0111 6.42614 22.067C6.4414 22.1859 6.49287 22.4222 6.69871 22.6296C6.9052 22.8377 7.14196 22.8905 7.25986 22.9065C7.31552 22.914 7.36215 22.9156 7.38572 22.9162C7.40794 22.9168 7.43017 22.9168 7.44094 22.9168L16.6127 22.9168C16.6176 22.9169 16.7059 22.9183 16.7923 22.907C16.9054 22.8921 17.14 22.8424 17.3474 22.6393C17.5569 22.4342 17.6102 22.1982 17.6268 22.0881C17.6396 22.0034 17.6401 21.916 17.6402 21.9092C17.6568 21.1134 17.8909 20.3366 18.3181 19.6635C18.7452 18.9904 19.3484 18.4478 20.0614 18.0939C20.0676 18.091 20.1464 18.0533 20.2176 18.0057C20.3101 17.9438 20.501 17.795 20.5974 17.5182C20.6929 17.244 20.6379 17.0106 20.6032 16.9019C20.5767 16.8186 20.5376 16.7391 20.5356 16.7352L16.6305 8.43643C16.6259 8.4267 16.6165 8.40654 16.6065 8.38664C16.5959 8.36556 16.5746 8.32407 16.544 8.27692C16.4794 8.17704 16.3308 7.98531 16.0546 7.88705Z" fill="#272727"/>
<path d="M27.9457 7.88705C28.221 7.7891 28.4568 7.84317 28.5709 7.87998C28.6245 7.89727 28.6673 7.916 28.6889 7.92566C28.7091 7.93476 28.7292 7.94439 28.7388 7.94903L28.741 7.95007C31.3706 9.21165 33.5942 11.1863 35.1578 13.6501C36.7214 16.114 37.5614 18.9667 37.5832 21.8832L37.5833 21.8856C37.5833 21.8963 37.5835 21.9186 37.5831 21.9408C37.5827 21.9644 37.5814 22.0111 37.5742 22.067C37.559 22.1859 37.5075 22.4222 37.3016 22.6296C37.0952 22.8377 36.8584 22.8905 36.7405 22.9065C36.6848 22.914 36.6382 22.9156 36.6146 22.9162C36.5924 22.9168 36.5702 22.9168 36.5594 22.9168L27.3876 22.9168C27.3827 22.9169 27.2944 22.9183 27.208 22.907C27.0949 22.8921 26.8603 22.8424 26.6529 22.6393C26.4435 22.4342 26.3902 22.1982 26.3735 22.0881C26.3607 22.0034 26.3602 21.916 26.3602 21.9092C26.3436 21.1134 26.1094 20.3366 25.6823 19.6635C25.2551 18.9904 24.652 18.4478 23.9389 18.0939C23.9328 18.091 23.854 18.0533 23.7828 18.0057C23.6902 17.9438 23.4994 17.795 23.403 17.5182C23.3075 17.244 23.3624 17.0106 23.3971 16.9019C23.4237 16.8186 23.4628 16.7391 23.4647 16.7352L27.3698 8.43643C27.3744 8.4267 27.3839 8.40654 27.3939 8.38664C27.4045 8.36556 27.4258 8.32407 27.4563 8.27692C27.521 8.17704 27.6696 7.98531 27.9457 7.88705Z" fill="#272727"/>
<path d="M22.0136 26.3609C22.8108 26.3584 23.5914 26.1375 24.271 25.7229C24.2769 25.7192 24.3507 25.6726 24.4289 25.6378C24.5306 25.5926 24.7582 25.5104 25.0438 25.5765C25.3267 25.6419 25.4948 25.8128 25.5683 25.9001C25.6245 25.9669 25.6709 26.0423 25.6733 26.0462L30.6105 33.7728C30.6156 33.7809 30.6286 33.8011 30.6411 33.8217C30.6532 33.8419 30.677 33.8821 30.7006 33.933C30.7506 34.041 30.8336 34.2689 30.7695 34.5549C30.7055 34.8401 30.5341 35.0107 30.4421 35.0876C30.3989 35.1237 30.3602 35.15 30.3406 35.163C30.3221 35.1753 30.3034 35.1871 30.2942 35.1928L30.2921 35.1941C27.8227 36.7461 24.9666 37.5743 22.0485 37.5834C19.1304 37.5924 16.2691 36.782 13.7902 35.2454L13.7773 35.2375C13.7675 35.2313 13.7544 35.2231 13.7415 35.2146C13.7218 35.2017 13.6829 35.1756 13.6395 35.1398C13.5471 35.0635 13.3746 34.8939 13.3089 34.6092C13.2429 34.3236 13.3245 34.0951 13.3739 33.9869C13.3971 33.9358 13.4206 33.8954 13.4327 33.8752C13.4441 33.856 13.456 33.8372 13.4617 33.8281L18.3521 26.0689C18.3543 26.0652 18.4003 25.9895 18.4561 25.9222C18.529 25.8345 18.6961 25.6625 18.9785 25.5953C19.2637 25.5275 19.4918 25.6083 19.5939 25.6529C19.6724 25.6872 19.7462 25.7332 19.7519 25.7367C20.4341 26.1471 21.2164 26.3634 22.0136 26.3609Z" fill="#272727"/>
</svg>
