<svg width="24" height="24" viewBox="0 0 24 24" fill="none" xmlns="http://www.w3.org/2000/svg">
<path d="M15.9999 22.7999C15.5999 22.7999 15.1999 22.4999 15.1999 21.9999V18.0999C15.2999 17.2999 14.9999 16.5999 14.4999 15.9999C14.2999 15.7999 14.1999 15.4999 14.2999 15.1999C14.3999 14.8999 14.5999 14.6999 14.8999 14.6999C17.8999 14.3999 20.6999 13.3999 20.6999 8.39994C20.6999 7.19994 20.1999 5.99995 19.3999 5.19994C19.1999 4.99995 19.0999 4.69995 19.1999 4.39995C19.4999 3.49995 19.5999 2.49995 19.2999 1.59995C18.7999 1.69995 17.8999 1.89995 16.2999 2.99995C16.0999 3.09995 15.8999 3.19994 15.6999 3.09995C13.4999 2.49995 11.2999 2.49995 9.0999 3.09995C8.9999 3.29995 8.7999 3.19994 8.5999 3.09995C7.0999 2.09995 6.0999 1.79995 5.5999 1.69995C5.2999 2.59995 5.3999 3.59995 5.6999 4.49995C5.7999 4.79995 5.6999 5.09995 5.4999 5.29995C4.6999 6.19995 4.1999 7.29994 4.1999 8.59995C4.1999 13.4999 6.9999 14.4999 9.9999 14.8999C10.2999 14.8999 10.4999 15.0999 10.5999 15.3999C10.6999 15.6999 10.5999 15.9999 10.3999 16.1999C9.8999 16.6999 9.5999 17.4999 9.6999 18.1999V19.0999V19.1999V22.1999C9.6999 22.5999 9.3999 22.9999 8.8999 22.9999C8.3999 22.9999 8.1999 22.3999 8.1999 21.9999V19.9999C5.0999 20.5999 3.8999 18.9999 2.9999 17.8999C2.5999 17.3999 2.1999 16.8999 1.7999 16.7999C1.3999 16.6999 1.1999 16.2999 1.2999 15.8999C1.3999 15.4999 1.7999 15.2999 2.1999 15.3999C3.0999 15.5999 3.6999 16.2999 4.1999 16.9999C5.0999 18.0999 5.8999 19.0999 8.1999 18.4999V18.1999C8.1999 17.4999 8.2999 16.7999 8.5999 16.1999C5.7999 15.5999 2.6999 13.9999 2.6999 8.59995C2.6999 7.09995 3.1999 5.79994 4.0999 4.59995C3.7999 3.29995 3.8999 1.89995 4.3999 0.699945C4.4999 0.499945 4.6999 0.299945 4.8999 0.299945C5.0999 0.199945 6.4999 -5.48363e-05 9.1999 1.69995C11.3999 1.19995 13.6999 1.19995 15.8999 1.69995C18.5999 -5.48363e-05 19.8999 0.199945 20.1999 0.299945C20.3999 0.399945 20.5999 0.499945 20.6999 0.699945C21.1999 1.89995 21.2999 3.29995 20.8999 4.59995C21.7999 5.69994 22.2999 7.09994 22.2999 8.49994C22.2999 13.8999 19.1999 15.4999 16.3999 16.0999C16.6999 16.6999 16.8999 17.4999 16.7999 18.1999V21.9999C16.7999 22.3999 16.3999 22.7999 15.9999 22.7999Z" fill="#838383"/>
</svg>
