<svg width="15" height="15" viewBox="0 0 15 15" fill="none" xmlns="http://www.w3.org/2000/svg">
<g clip-path="url(#clip0_176_1348)">
<path d="M12.875 7.5C12.875 10.4685 10.4685 12.875 7.5 12.875C4.53148 12.875 2.125 10.4685 2.125 7.5C2.125 4.53148 4.53148 2.125 7.5 2.125C10.4685 2.125 12.875 4.53148 12.875 7.5ZM7.5 14C11.0899 14 14 11.0899 14 7.5C14 3.91015 11.0899 1 7.5 1C3.91015 1 1 3.91015 1 7.5C1 11.0899 3.91015 14 7.5 14Z" fill="#838383" stroke="#838383" stroke-width="0.5"/>
<path d="M6.875 10.9375C6.875 11.2827 7.15481 11.5625 7.5 11.5625C7.84519 11.5625 8.125 11.2827 8.125 10.9375V6.5625C8.125 6.21731 7.84519 5.9375 7.5 5.9375C7.15481 5.9375 6.875 6.21731 6.875 6.5625V10.9375Z" fill="#838383"/>
<path d="M7.5 4.6875C7.15481 4.6875 6.875 4.40769 6.875 4.0625C6.875 3.71731 7.15481 3.4375 7.5 3.4375C7.84519 3.4375 8.125 3.71731 8.125 4.0625C8.125 4.40769 7.84519 4.6875 7.5 4.6875Z" fill="#838383"/>
</g>
<defs>
<clipPath id="clip0_176_1348">
<rect width="15" height="15" fill="white"/>
</clipPath>
</defs>
</svg>
