<svg width="24" height="24" viewBox="0 0 96 100" fill="none" xmlns="http://www.w3.org/2000/svg">
<path fill-rule="evenodd" clip-rule="evenodd" d="M16.4569 17.7965C19.5512 20.3104 20.712 20.1186 26.5226 19.7309L81.3016 16.4417C82.4633 16.4417 81.4973 15.2827 81.1098 15.0901L72.0122 8.51319C70.269 7.15981 67.9466 5.60992 63.4954 5.99764L10.4529 9.86638C8.5184 10.0582 8.13205 11.0254 8.9024 11.8007L16.4569 17.7965ZM19.7457 30.5627V88.1997C19.7457 91.2973 21.2937 92.4562 24.7776 92.2645L84.9797 88.781C88.4654 88.5894 88.8537 86.4588 88.8537 83.9425V26.6922C88.8537 24.18 87.8873 22.8252 85.7535 23.0186L22.8418 26.6922C20.52 26.8873 19.7457 28.0487 19.7457 30.5627ZM79.177 33.6545C79.563 35.3969 79.177 37.1378 77.4313 37.3337L74.5307 37.9117V80.463C72.0122 81.8166 69.6899 82.5904 67.7546 82.5904C64.6562 82.5904 63.8802 81.6226 61.5594 78.7231L42.5857 48.9368V77.7558L48.5898 79.1106C48.5898 79.1106 48.5898 82.5904 43.7458 82.5904L30.392 83.3651C30.0041 82.5904 30.392 80.6579 31.7465 80.2708L35.2313 79.3049V41.2007L30.3929 40.813C30.0048 39.0705 30.9713 36.5581 33.6833 36.3632L48.0089 35.3975L67.7546 65.5714V38.8787L62.7202 38.301C62.3338 36.1708 63.8802 34.624 65.8162 34.4322L79.177 33.6545ZM5.99932 4.64445L61.172 0.581357C67.9474 0.000271827 69.6906 0.389553 73.9491 3.48287L91.5609 15.8614C94.4669 17.99 95.4355 18.5695 95.4355 20.89V88.781C95.4355 93.0359 93.8854 95.5522 88.4664 95.9372L24.3942 99.8063C20.3262 100 18.3902 99.4206 16.2598 96.7111L3.2902 79.8837C0.966452 76.786 0 74.4688 0 71.7577V11.4116C0 7.93211 1.55047 5.02962 5.99932 4.64445Z" fill="#838383"/>
</svg>
