<svg width="48" height="48" viewBox="0 0 48 48" fill="none" xmlns="http://www.w3.org/2000/svg">
<path d="M15 21C15 20.4477 15.4477 20 16 20C16.5523 20 17 20.4477 17 21V39C17 39.5523 16.5523 40 16 40C15.4477 40 15 39.5523 15 39V21Z" fill="#272727"/>
<path d="M6 40.5C6 39.6716 6.67157 39 7.5 39H40.5C41.3284 39 42 39.6716 42 40.5C42 41.3284 41.3284 42 40.5 42H7.5C6.67157 42 6 41.3284 6 40.5Z" fill="#272727"/>
<path fill-rule="evenodd" clip-rule="evenodd" d="M21.4102 13.0021C21.5012 12.5882 21.5493 12.1571 21.5493 11.7143C21.5493 8.55837 19.1072 6 16.0947 6C13.0822 6 10.6402 8.55837 10.6402 11.7143C10.6402 12.1571 10.6882 12.5882 10.7792 13.0021C9.09998 13.7018 7.9129 15.4199 7.9129 17.4285C7.9129 17.9155 7.98268 18.3854 8.11233 18.8279C6.91173 19.469 6.09473 20.7343 6.09473 22.1905C6.09473 24.2944 7.80032 26 9.90426 26H22.2852C24.3891 26 26.0947 24.2944 26.0947 22.1905C26.0947 20.7343 25.2777 19.469 24.0771 18.8279C24.2067 18.3854 24.2765 17.9155 24.2765 17.4285C24.2765 15.4199 23.0895 13.7018 21.4102 13.0021Z" fill="#272727"/>
<path fill-rule="evenodd" clip-rule="evenodd" d="M33.6021 24.003C33.5557 24.0071 33.5355 24.014 33.5357 24.014C31.2947 24.8128 29.9283 26.4839 28.9454 29.3268C28.7649 29.8487 28.1955 30.1256 27.6735 29.9451C27.1516 29.7646 26.8747 29.1952 27.0552 28.6732C28.1584 25.4825 29.8588 23.2012 32.8646 22.1299C33.5612 21.8819 34.385 22.0266 34.9908 22.2506C35.5913 22.4728 36.3387 22.9066 36.6931 23.6091C36.8971 24.0133 37.0749 24.3744 37.2372 24.7041C37.4537 25.1438 37.6428 25.5276 37.8296 25.8835C38.1495 26.493 38.4042 26.9021 38.6625 27.1949C38.9029 27.4675 39.1499 27.6427 39.4757 27.7647C39.8227 27.8947 40.302 27.9803 41.028 28.0004C41.58 28.0157 42.0152 28.4756 41.9999 29.0277C41.9846 29.5797 41.5247 30.0149 40.9726 29.9996C40.134 29.9764 39.4096 29.8757 38.774 29.6376C38.1171 29.3915 37.6024 29.0165 37.1626 28.5179C36.7405 28.0394 36.3963 27.4561 36.0587 26.813C35.865 26.444 35.6535 26.015 35.4234 25.5482C35.2609 25.2184 35.089 24.8697 34.9075 24.5099C34.9076 24.5101 34.9075 24.51 34.9075 24.5099C34.9048 24.5056 34.8689 24.4485 34.7524 24.3632C34.6362 24.2781 34.4785 24.1936 34.2969 24.1264C34.1158 24.0594 33.9358 24.0189 33.7834 24.0052C33.7082 23.9985 33.6475 23.999 33.6021 24.003Z" fill="#272727"/>
<path fill-rule="evenodd" clip-rule="evenodd" d="M32.5905 22.5042C33.1406 22.5542 33.5459 23.0406 33.4959 23.5906L33.04 28.6059L38.0702 33.3436C38.1738 33.4411 38.2554 33.5596 38.3095 33.6912L39.9249 37.6198C40.1349 38.1306 39.8911 38.7149 39.3803 38.925C38.8695 39.135 38.2852 38.8912 38.0751 38.3804L36.5418 34.6515L31.3144 29.7281C31.0907 29.5174 30.9763 29.2156 31.0041 28.9096L31.5041 23.4096C31.5541 22.8595 32.0405 22.4542 32.5905 22.5042Z" fill="#272727"/>
<path fill-rule="evenodd" clip-rule="evenodd" d="M34.969 24.7473C35.1056 24.2122 34.7825 23.6677 34.2473 23.5311C33.7122 23.3945 33.1677 23.7176 33.0311 24.2527L31.6873 29.5175C31.869 29.552 32.0433 29.6372 32.1876 29.7738L33.3943 30.9163L34.969 24.7473ZM32.8191 33.1259L31.1658 31.5606L30.965 32.3471L30.1355 35.0957L27.3903 37.2074C26.9526 37.5441 26.8707 38.172 27.2074 38.6097C27.5441 39.0475 28.172 39.1294 28.6097 38.7926L31.6097 36.4849C31.7754 36.3575 31.897 36.1813 31.9574 35.9812L32.8191 33.1259Z" fill="#272727"/>
<path d="M38 18.5C38 19.8807 36.8807 21 35.5 21C34.1193 21 33 19.8807 33 18.5C33 17.1193 34.1193 16 35.5 16C36.8807 16 38 17.1193 38 18.5Z" fill="#272727"/>
<path d="M36.5002 26L34.9396 32L31.2275 29.0588L31.5305 24.1765L34.9396 24L36.5002 26Z" fill="#272727"/>
</svg>
