<svg width="58" height="38" viewBox="0 0 58 38" fill="none" xmlns="http://www.w3.org/2000/svg">
<path d="M37.958 11.0208C39.8738 11.0208 41.4268 9.46775 41.4268 7.552C41.4268 5.63627 39.8738 4.08325 37.958 4.08325C36.0423 4.08325 34.4893 5.63627 34.4893 7.552C34.4893 9.46775 36.0423 11.0208 37.958 11.0208Z" fill="#272727"/>
<path d="M47.9795 20.2708C46.7023 20.2708 45.667 21.3061 45.667 22.5833V22.8476C45.667 23.2734 46.0121 23.6185 46.4378 23.6185C46.8636 23.6185 47.2087 23.2734 47.2087 22.8476V22.5833C47.2087 22.1575 47.5538 21.8124 47.9795 21.8124C48.4052 21.8124 48.7503 22.1575 48.7503 22.5833V34.1038C48.7503 34.5295 49.0954 34.8747 49.5212 34.8747C49.9469 34.8747 50.292 34.5295 50.292 34.1038V22.5833C50.292 21.3061 49.2567 20.2708 47.9795 20.2708Z" fill="#272727"/>
<path d="M43.9001 16.5547L42.583 15.9792L43.8128 16.5017C43.8425 16.5192 43.8716 16.5369 43.9001 16.5547Z" fill="#272727"/>
<path d="M44.8458 17.3736C44.6313 17.1128 44.33 16.8221 43.9004 16.5547L48.7506 18.6737C48.7512 18.7001 48.7516 18.702 48.7498 18.5999L48.7499 18.6012C48.8234 19.4497 48.1682 20.1949 47.2864 20.2656C46.4118 20.3357 45.6429 19.716 45.5587 18.878L45.5585 18.8768C45.5574 18.8681 45.5541 18.8453 45.5474 18.8102C45.5338 18.7398 45.5072 18.6231 45.4582 18.4757C45.3597 18.1789 45.1772 17.7765 44.8458 17.3736Z" fill="#272727"/>
<path fill-rule="evenodd" clip-rule="evenodd" d="M48.7495 18.599L43.8128 16.5017C43.4809 16.3054 43.0767 16.1241 42.583 15.9792V33.375C42.583 34.1966 41.9388 34.8738 41.1181 34.9147C40.2976 34.9557 39.5891 34.3459 39.5073 33.5284L38.7365 25.8201C38.7314 25.7689 38.7289 25.7177 38.7289 25.6667H37.1872C37.1872 25.7177 37.1846 25.7689 37.1796 25.8201L36.4087 33.5284C36.3269 34.3459 35.6185 34.9557 34.7979 34.9147C33.9774 34.8738 33.333 34.1966 33.333 33.375V22.5209C32.039 22.3491 30.9514 21.8288 30.1445 21.0371C29.1599 20.071 28.6959 18.7994 28.7082 17.5581C28.7207 16.3179 29.2084 15.0592 30.1871 14.1052C31.1832 13.1342 32.6004 12.5625 34.3003 12.5625H39.9436C43.7759 12.5625 46.0663 13.8899 47.3579 15.4598C47.9777 16.2132 48.3209 16.967 48.5103 17.5374C48.6227 17.8761 48.7107 18.2262 48.7478 18.5806L48.7488 18.5918L48.7493 18.5967L48.7495 18.599ZM32.4322 18.8782C32.6298 19.0722 32.9185 19.2602 33.333 19.3777V15.7769C32.947 15.894 32.6671 16.0766 32.4675 16.2711C32.1119 16.6179 31.9173 17.0935 31.9124 17.5877C31.9074 18.0808 32.0911 18.5436 32.4322 18.8782Z" fill="#272727"/>
<path d="M18.5003 13.7652C20.8417 13.7652 22.7399 11.8556 22.7399 9.49993C22.7399 7.14426 20.8417 5.23462 18.5003 5.23462C16.1588 5.23462 14.2607 7.14426 14.2607 9.49993C14.2607 11.8556 16.1588 13.7652 18.5003 13.7652Z" fill="#272727"/>
<path d="M22.3545 18.0583C23.6668 17.8674 25.049 17.5808 26.5789 17.2001C27.4054 16.9944 27.9097 16.1535 27.7052 15.322C27.5008 14.4904 26.6651 13.9831 25.8385 14.1888C22.8996 14.9202 20.6845 15.2486 18.5061 15.2403C16.3232 15.232 14.1023 14.8853 11.1454 14.1847C10.3167 13.9884 9.48657 14.5051 9.2914 15.3389C9.09622 16.1727 9.60983 17.0078 10.4386 17.2042C11.9604 17.5647 13.3374 17.8455 14.6461 18.038V19.9694H22.3545V18.0583Z" fill="#272727"/>
<path fill-rule="evenodd" clip-rule="evenodd" d="M20.565 25.3822C21.9142 24.7778 22.3538 23.5164 22.3538 23.0253V21.5205H14.6455V23.0253C14.6455 23.5164 15.0852 24.7778 16.4343 25.3822C16.5887 25.4514 16.7622 25.5381 16.9182 25.616L17.01 25.6618C17.2017 25.7571 17.3871 25.8472 17.5747 25.9272C17.9659 26.0939 18.271 26.1736 18.4997 26.1736C18.7284 26.1736 19.0335 26.0939 19.4247 25.9272C19.6123 25.8472 19.7978 25.7571 19.9894 25.6618L20.0812 25.6161M20.565 25.3822C20.4107 25.4514 20.2371 25.5381 20.0812 25.6161L20.565 25.3822Z" fill="#272727"/>
<path d="M15.7521 26.8377C14.8408 26.4211 14.2287 25.7913 13.8606 25.165C12.6645 26.2124 12.0059 27.5295 12.0059 29.2675C12.0059 29.9607 12.1532 31.0009 12.5363 31.8439C12.9286 32.7072 13.4553 33.1532 14.1209 33.1532C14.8351 33.1532 15.4397 32.6033 15.4397 31.8955C15.4397 31.5807 15.3073 31.283 15.0977 30.8404L15.0839 30.8111C14.894 30.4107 14.6434 29.882 14.6434 29.2675C14.6434 28.5953 14.9748 27.8818 15.3604 27.3042C15.4842 27.1188 15.6152 26.9679 15.7521 26.8377Z" fill="#272727"/>
<path d="M21.248 26.8374C22.1592 26.4208 22.7714 25.791 23.1396 25.1648C24.3356 26.2121 24.9944 27.5292 24.9944 29.2673C24.9944 29.9605 24.8469 31.0007 24.4639 31.8437C24.0716 32.707 23.5449 33.153 22.8793 33.153C22.165 33.153 21.5605 32.6031 21.5605 31.8954C21.5605 31.5805 21.6929 31.2828 21.9025 30.8402L21.9164 30.811C22.1061 30.4105 22.3567 29.8818 22.3567 29.2673C22.3567 28.5951 22.0254 27.8816 21.6398 27.304C21.5159 27.1185 21.3849 26.9676 21.248 26.8374Z" fill="#272727"/>
</svg>